<svg width="30" height="30" viewBox="0 0 30 30" fill="none" xmlns="http://www.w3.org/2000/svg">
<path fill-rule="evenodd" clip-rule="evenodd" d="M16.1538 0.576923C16.1538 0.258297 15.8955 0 15.5769 0V0C15.2583 0 15 0.258298 15 0.576924V12C15 13.6569 13.6569 15 12 15H0.576923C0.258297 15 0 15.2583 0 15.5769V15.5769C0 15.8955 0.258298 16.1538 0.576923 16.1538H12C13.6569 16.1538 15 17.497 15 19.1538V29.4231C15 29.7417 15.2583 30 15.5769 30V30C15.8955 30 16.1538 29.7417 16.1538 29.4231V19.1538C16.1538 17.497 17.497 16.1538 19.1538 16.1538H29.4231C29.7417 16.1538 30 15.8955 30 15.5769V15.5769C30 15.2583 29.7417 15 29.4231 15H19.1538C17.497 15 16.1538 13.6569 16.1538 12V0.576923Z" fill="white"/>
</svg>
